<?xml version="1.0" standalone="no"?>
<!DOCTYPE svg PUBLIC "-//W3C//DTD SVG 20010904//EN"
 "http://www.w3.org/TR/2001/REC-SVG-20010904/DTD/svg10.dtd">
<svg version="1.0" xmlns="http://www.w3.org/2000/svg"
 width="758.000000pt" height="1280.000000pt" viewBox="0 0 758.000000 1280.000000"
 preserveAspectRatio="xMidYMid meet">
<metadata>
Created by potrace 1.15, written by Peter Selinger 2001-2017
</metadata>
<g transform="translate(0.000000,1280.000000) scale(0.100000,-0.100000)"
fill="#000000" stroke="none">
<path d="M45 12767 c-23 -56 -45 -201 -45 -301 1 -246 63 -579 165 -876 161
-468 465 -1098 695 -1440 38 -56 62 -104 70 -140 23 -100 87 -286 128 -371
146 -304 364 -489 697 -593 138 -43 213 -75 261 -114 77 -61 196 -231 340
-483 257 -452 333 -574 449 -724 78 -100 193 -211 266 -258 167 -107 342 -102
504 14 24 18 42 35 40 40 -3 4 18 27 47 51 114 95 147 149 156 253 6 80 -10
168 -58 315 -44 137 -117 285 -247 504 -148 248 -206 328 -304 418 -49 45 -88
82 -87 84 2 1 111 -22 243 -52 261 -58 291 -62 335 -39 25 13 30 13 30 2 0
-21 -33 -47 -73 -58 -30 -8 -69 -2 -219 31 -101 22 -187 40 -192 40 -5 0 31
-38 80 -84 72 -68 105 -109 175 -222 47 -77 114 -191 149 -254 90 -163 148
-220 305 -298 89 -44 161 -69 310 -107 202 -52 324 -99 435 -168 l35 -22 -36
50 c-347 481 -364 501 -434 546 -35 22 -103 81 -152 132 -48 51 -117 115 -153
142 -124 95 -189 177 -208 263 -6 23 -8 52 -4 64 4 16 9 8 22 -34 28 -90 102
-180 235 -284 27 -21 59 -50 70 -64 52 -67 166 -177 219 -211 67 -44 102 -89
380 -488 97 -139 178 -263 181 -275 2 -11 11 -84 20 -161 30 -264 76 -552 105
-665 36 -138 33 -256 -16 -519 -38 -211 -30 -345 30 -505 75 -197 244 -338
386 -321 71 9 135 37 151 67 8 15 13 75 14 168 2 137 5 154 49 320 61 230 113
450 121 508 4 26 9 54 12 62 7 21 47 -58 72 -140 43 -142 53 -228 61 -515 9
-315 14 -343 85 -490 57 -118 134 -209 230 -274 90 -60 167 -85 239 -78 64 6
156 40 190 72 32 30 34 74 6 195 -14 60 -20 123 -20 212 l0 127 63 -39 c77
-48 164 -73 217 -61 41 9 149 70 171 97 10 12 10 26 2 62 -6 26 -20 88 -31
137 -15 65 -24 156 -32 330 -17 394 -42 552 -136 874 -30 102 -102 359 -160
570 -105 383 -132 469 -173 550 -59 114 -169 188 -561 375 l-155 73 -87 99
c-150 170 -228 290 -382 589 -109 211 -194 341 -281 428 -119 120 -207 176
-443 283 -211 95 -333 163 -603 336 -119 75 -295 180 -390 231 -213 115 -263
146 -387 246 -344 277 -607 678 -878 1338 l-79 192 -165 40 c-576 140 -1141
212 -1767 228 l-273 6 -15 -36z m464 -1362 c120 -554 230 -908 331 -1062 l31
-48 -40 44 c-54 60 -131 212 -180 353 -79 231 -134 472 -195 858 -56 354 -51
341 53 -145z m6455 -5495 c44 -60 45 -62 9 -24 -21 23 -47 57 -57 75 -25 45
-10 29 48 -51z"/>
<path d="M1085 7577 c-53 -18 -119 -52 -132 -69 -21 -27 -22 -66 -2 -158 22
-101 36 -300 25 -344 l-7 -27 -32 25 c-76 56 -181 90 -240 76 -40 -9 -127 -54
-157 -82 -26 -25 -25 -53 5 -173 22 -84 28 -145 40 -375 8 -151 17 -295 20
-320 24 -193 56 -337 142 -635 51 -181 121 -430 154 -553 96 -359 136 -470
195 -547 51 -67 216 -166 476 -286 190 -88 206 -100 336 -254 107 -128 183
-247 321 -508 66 -125 140 -258 165 -295 107 -162 249 -283 438 -375 62 -30
192 -93 288 -140 96 -47 240 -127 320 -178 297 -189 379 -238 530 -319 85 -45
189 -105 230 -132 270 -181 518 -457 711 -793 81 -142 221 -432 294 -610 31
-77 65 -159 75 -181 l18 -42 188 -45 c607 -147 1161 -219 1808 -234 l289 -6
-6 44 c-4 24 -27 240 -52 479 l-46 435 -64 190 c-166 494 -479 1156 -706 1496
-44 66 -63 106 -78 167 -74 286 -175 491 -321 645 -147 157 -300 244 -576 326
-55 17 -121 45 -147 62 -97 64 -209 216 -377 509 -45 80 -118 208 -162 285
-237 413 -426 638 -616 733 -64 31 -85 36 -160 40 -99 4 -170 -15 -253 -69
-44 -28 -97 -77 -59 -54 17 11 -62 -65 -118 -112 -45 -37 -78 -100 -92 -174
-13 -66 8 -201 52 -334 39 -120 145 -334 261 -526 164 -273 197 -316 327 -433
36 -32 56 -55 45 -53 -11 3 -125 29 -254 57 -245 54 -294 58 -332 24 -15 -14
-19 -14 -19 -3 0 28 30 56 72 68 39 11 61 8 222 -29 98 -22 185 -40 193 -40 7
0 -22 32 -66 70 -46 41 -99 100 -126 141 -70 106 -176 284 -235 393 -43 79
-63 106 -118 151 -69 57 -202 128 -307 164 -33 11 -121 36 -195 55 -204 53
-285 85 -392 152 -21 14 -38 22 -38 19 0 -5 124 -177 286 -396 104 -140 130
-169 166 -185 27 -11 84 -60 153 -129 61 -61 137 -131 170 -157 78 -59 148
-134 175 -188 20 -39 40 -150 27 -150 -3 0 -13 24 -21 54 -21 72 -93 165 -185
240 -86 69 -100 83 -193 188 -37 42 -99 97 -137 122 -47 32 -85 68 -123 118
-66 88 -337 476 -401 573 l-46 70 -21 180 c-31 259 -64 471 -100 630 -40 174
-38 261 11 546 32 189 33 200 21 294 -23 181 -86 321 -192 425 -104 102 -201
128 -328 86 -73 -25 -79 -39 -84 -226 -5 -146 -8 -165 -52 -330 -43 -163 -104
-416 -123 -520 l-9 -45 -27 52 c-68 132 -99 319 -103 623 -2 236 -8 292 -39
385 -82 243 -290 440 -478 451 -35 2 -79 -2 -102 -9z m-445 -724 c11 -18 18
-33 16 -33 -5 0 -78 98 -89 120 -15 27 53 -54 73 -87z"/>
</g>
</svg>
